<svg width="48" height="46" viewBox="0 0 48 46" fill="none" xmlns="http://www.w3.org/2000/svg">
<path d="M23.994 29.6817C23.7674 29.6817 23.5516 29.5902 23.3941 29.4285L18.6492 24.5613C18.3254 24.2291 18.3312 23.6973 18.6628 23.373C18.9943 23.0486 19.5262 23.0545 19.849 23.3866L23.993 27.6382L26.7418 24.8184C27.0655 24.4863 27.5964 24.4804 27.928 24.8048C28.2596 25.1291 28.2664 25.661 27.9416 25.9931L24.5929 29.4285C24.4354 29.5902 24.2186 29.6817 23.993 29.6817H23.994Z" fill="black"></path>
<path d="M34.8507 17.1143C34.7856 17.1143 34.7185 17.1065 34.6523 17.0909C34.2022 16.9818 33.9251 16.5279 34.034 16.076C34.3412 14.8049 34.243 13.4763 33.7578 12.3348C33.3971 11.4874 32.8574 10.7578 32.1972 10.2241C31.1374 9.36791 29.7976 9.02018 28.4256 9.23836C26.9156 9.48089 25.5952 10.3702 24.7094 11.7426C24.5548 11.9822 24.2894 12.1263 24.0045 12.1263C23.7196 12.1263 23.4551 11.9822 23.2996 11.7426C22.4138 10.3702 21.0943 9.48089 19.5834 9.23836C18.2114 9.01921 16.8725 9.36888 15.8127 10.2241C15.1515 10.7578 14.6119 11.4874 14.2512 12.3348C14.0693 12.7614 13.5774 12.9611 13.1505 12.778C12.7246 12.5958 12.5263 12.102 12.7081 11.6754C13.1758 10.5757 13.8856 9.62115 14.7597 8.91499C16.1939 7.75493 17.9995 7.2796 19.8498 7.57765C21.4385 7.83285 22.9048 8.66174 24.0045 9.9007C25.1052 8.66174 26.5704 7.83285 28.1592 7.57765C30.0047 7.28155 31.8141 7.7559 33.2493 8.91499C34.1234 9.62115 34.8322 10.5757 35.3009 11.6754C35.9261 13.1471 36.0554 14.8497 35.6645 16.4695C35.5712 16.8542 35.228 17.1124 34.8497 17.1124L34.8507 17.1143Z" fill="black"></path>
<path d="M45.2449 45.7139H2.75361C1.23484 45.7139 0 44.4769 0 42.9555V2.75855C0 1.23713 1.23484 0.00012207 2.75361 0.00012207H45.2459C46.7636 0.00012207 47.9995 1.23713 47.9995 2.75855V42.9555C47.9995 44.4759 46.7646 45.7139 45.2459 45.7139H45.2449ZM2.75361 1.68128C2.16049 1.68128 1.67822 2.1644 1.67822 2.75855V42.9555C1.67822 43.5496 2.16049 44.0327 2.75361 44.0327H45.2459C45.839 44.0327 46.3212 43.5496 46.3212 42.9555V2.75855C46.3212 2.1644 45.839 1.68128 45.2459 1.68128H2.75361Z" fill="black"></path>
<path d="M43.9927 33.0414H4.0188C3.555 33.0414 3.17969 32.6654 3.17969 32.2008V4.01943C3.17969 3.55482 3.555 3.17885 4.0188 3.17885H43.9927C44.4565 3.17885 44.8319 3.55482 44.8319 4.01943V32.2008C44.8319 32.6654 44.4565 33.0414 43.9927 33.0414ZM4.85791 31.3602H43.1536V4.86001H4.85791V31.3602Z" fill="black"></path>
<path d="M41.8629 43.2547C41.3991 43.2547 41.0238 42.8787 41.0238 42.4141V38.6602C41.0238 37.4018 40.0009 36.3771 38.7446 36.3771H9.25812C8.00188 36.3771 6.979 37.4018 6.979 38.6602V42.4141C6.979 42.8787 6.60369 43.2547 6.13989 43.2547C5.6761 43.2547 5.30078 42.8787 5.30078 42.4141V38.6602C5.30078 36.4745 7.07623 34.6959 9.25714 34.6959H38.7437C40.9255 34.6959 42.701 36.4745 42.701 38.6602V42.4141C42.701 42.8787 42.3257 43.2547 41.8619 43.2547H41.8629Z" fill="black"></path>
<path d="M11.2004 40.7252H9.85864C9.39485 40.7252 9.01953 40.3493 9.01953 39.8846C9.01953 39.42 9.39485 39.0441 9.85864 39.0441H11.2004C11.6642 39.0441 12.0396 39.42 12.0396 39.8846C12.0396 40.3493 11.6642 40.7252 11.2004 40.7252Z" fill="black"></path>
<path d="M15.4661 40.7252H14.1243C13.6605 40.7252 13.2852 40.3493 13.2852 39.8846C13.2852 39.42 13.6605 39.0441 14.1243 39.0441H15.4661C15.9299 39.0441 16.3052 39.42 16.3052 39.8846C16.3052 40.3493 15.9299 40.7252 15.4661 40.7252Z" fill="black"></path>
<path d="M19.7356 40.7252H18.3938C17.93 40.7252 17.5547 40.3493 17.5547 39.8846C17.5547 39.42 17.93 39.0441 18.3938 39.0441H19.7356C20.1994 39.0441 20.5747 39.42 20.5747 39.8846C20.5747 40.3493 20.1994 40.7252 19.7356 40.7252Z" fill="black"></path>
<path d="M24.0012 40.7252H22.6594C22.1956 40.7252 21.8203 40.3493 21.8203 39.8846C21.8203 39.42 22.1956 39.0441 22.6594 39.0441H24.0012C24.465 39.0441 24.8403 39.42 24.8403 39.8846C24.8403 40.3493 24.465 40.7252 24.0012 40.7252Z" fill="black"></path>
<path d="M37.675 40.859H31.179C30.7152 40.859 30.3398 40.483 30.3398 40.0184C30.3398 39.5538 30.7152 39.1779 31.179 39.1779H37.675C38.1388 39.1779 38.5141 39.5538 38.5141 40.0184C38.5141 40.483 38.1388 40.859 37.675 40.859Z" fill="black"></path>
<path d="M29.9153 26.2474C29.9027 26.2474 29.891 26.2474 29.8784 26.2474C29.4671 26.2289 29.1287 25.9143 29.0811 25.5042L28.0971 16.9416L27.3708 19.4682C27.2677 19.8286 26.9381 20.076 26.5647 20.076H24.1203L22.4304 23.7841C22.2758 24.123 21.917 24.3208 21.5466 24.2672C21.1771 24.2136 20.8883 23.9224 20.8358 23.5523L20.3468 20.076H17.3306L16.4128 25.2305C16.3427 25.6269 16.0005 25.9182 15.598 25.923H15.5873C15.1896 25.923 14.8454 25.6425 14.7656 25.2519L13.207 17.6477L12.3096 19.8344C12.1803 20.15 11.874 20.3555 11.5337 20.3555H6.21411C5.75031 20.3555 5.375 19.9795 5.375 19.5149C5.375 19.0503 5.75031 18.6744 6.21411 18.6744H10.9717L12.7004 14.4617C12.8414 14.1198 13.1866 13.9114 13.5551 13.9445C13.9226 13.9786 14.2241 14.2503 14.298 14.6127L15.5299 20.6224L15.8031 19.0883C15.8741 18.687 16.2222 18.3958 16.6286 18.3958H21.076C21.4941 18.3958 21.848 18.7036 21.9064 19.1185L22.096 20.4685L22.8174 18.8867C22.9535 18.5877 23.252 18.3958 23.5807 18.3958H25.9327L27.644 12.4377C27.7548 12.053 28.1234 11.8017 28.5191 11.8328C28.9177 11.8659 29.2376 12.1767 29.2833 12.5741L30.1448 20.0691L30.3577 19.0221C30.4375 18.6305 30.7817 18.349 31.1803 18.349H35.1493C35.5684 18.349 35.9243 18.6597 35.9807 19.0766L36.0604 19.664L36.6613 18.8185C36.8188 18.5974 37.0735 18.4659 37.3448 18.4659H41.2856C41.7494 18.4659 42.1247 18.8419 42.1247 19.3065C42.1247 19.7711 41.7494 20.1471 41.2856 20.1471H37.7775L36.1994 22.3698C36.0001 22.6503 35.6501 22.7818 35.3146 22.698C34.9801 22.6152 34.7303 22.3367 34.6846 21.9948L34.4172 20.0302H31.8658L30.7369 25.5763C30.6562 25.9688 30.312 26.2493 29.9153 26.2493V26.2474Z" fill="black"></path>
</svg>