<svg width="375" height="643" viewBox="0 0 375 643" fill="none" xmlns="http://www.w3.org/2000/svg">
<rect x="0.5" y="0.5" width="374" height="642" rx="4.5" stroke="#9747FF" stroke-dasharray="10 5"></rect>
<rect x="20" y="125" width="335" height="80" rx="3" fill="white" stroke="black"></rect>
<path d="M31.44 155V144.504H32.768V153.864H37.36V155H31.44ZM40.8853 155.192C40.2346 155.192 39.6906 155 39.2533 154.616C38.8266 154.221 38.6133 153.677 38.6133 152.984C38.6133 152.131 38.9919 151.48 39.7493 151.032C40.5173 150.573 41.7279 150.253 43.3813 150.072C43.3813 149.741 43.3333 149.427 43.2373 149.128C43.1519 148.829 42.9919 148.589 42.7573 148.408C42.5333 148.216 42.2079 148.12 41.7812 148.12C41.3333 148.12 40.9119 148.205 40.5173 148.376C40.1226 148.547 39.7706 148.739 39.4613 148.952L38.9493 148.04C39.3119 147.805 39.7546 147.581 40.2773 147.368C40.8106 147.144 41.3866 147.032 42.0052 147.032C42.9546 147.032 43.6426 147.325 44.0693 147.912C44.4959 148.488 44.7093 149.261 44.7093 150.232V155H43.6213L43.5093 154.072H43.4613C43.0986 154.371 42.6986 154.632 42.2613 154.856C41.8346 155.08 41.3759 155.192 40.8853 155.192ZM41.2693 154.136C41.6426 154.136 41.9946 154.045 42.3253 153.864C42.6559 153.683 43.0079 153.427 43.3813 153.096V150.936C42.0906 151.096 41.1839 151.336 40.6613 151.656C40.1493 151.976 39.8932 152.387 39.8932 152.888C39.8932 153.325 40.0266 153.645 40.2933 153.848C40.5599 154.04 40.8853 154.136 41.2693 154.136ZM50.5958 155.192C50.2331 155.192 49.8544 155.107 49.4598 154.936C49.0758 154.755 48.7131 154.509 48.3718 154.2H48.3238L48.2118 155H47.1558V143.608H48.4678V146.712L48.4358 148.12C48.7878 147.811 49.1718 147.555 49.5878 147.352C50.0144 147.139 50.4411 147.032 50.8678 147.032C51.8811 147.032 52.6491 147.389 53.1718 148.104C53.6944 148.819 53.9558 149.779 53.9558 150.984C53.9558 151.869 53.7958 152.627 53.4758 153.256C53.1664 153.885 52.7558 154.365 52.2438 154.696C51.7424 155.027 51.1931 155.192 50.5958 155.192ZM50.3718 154.088C51.0118 154.088 51.5398 153.816 51.9558 153.272C52.3824 152.717 52.5958 151.96 52.5958 151C52.5958 150.147 52.4358 149.459 52.1158 148.936C51.8064 148.403 51.2838 148.136 50.5477 148.136C50.2171 148.136 49.8811 148.227 49.5398 148.408C49.1984 148.589 48.8411 148.851 48.4678 149.192V153.272C48.8091 153.571 49.1451 153.784 49.4758 153.912C49.8171 154.029 50.1158 154.088 50.3718 154.088ZM59.1515 155.192C58.4582 155.192 57.8288 155.032 57.2635 154.712C56.6982 154.381 56.2502 153.912 55.9195 153.304C55.5888 152.696 55.4235 151.971 55.4235 151.128C55.4235 150.275 55.5888 149.544 55.9195 148.936C56.2608 148.328 56.6982 147.859 57.2315 147.528C57.7648 147.197 58.3248 147.032 58.9115 147.032C59.9035 147.032 60.6662 147.363 61.1995 148.024C61.7435 148.685 62.0155 149.571 62.0155 150.68C62.0155 150.819 62.0102 150.957 61.9995 151.096C61.9995 151.224 61.9888 151.336 61.9675 151.432H56.7195C56.7728 152.253 57.0288 152.909 57.4875 153.4C57.9568 153.891 58.5648 154.136 59.3115 154.136C59.6848 154.136 60.0262 154.083 60.3355 153.976C60.6555 153.859 60.9595 153.709 61.2475 153.528L61.7115 154.392C61.3808 154.605 61.0022 154.792 60.5755 154.952C60.1595 155.112 59.6848 155.192 59.1515 155.192ZM56.7035 150.488H60.8635C60.8635 149.699 60.6928 149.101 60.3515 148.696C60.0208 148.28 59.5515 148.072 58.9435 148.072C58.3995 148.072 57.9088 148.285 57.4715 148.712C57.0448 149.128 56.7888 149.72 56.7035 150.488ZM65.329 155.192C64.8383 155.192 64.481 155.043 64.257 154.744C64.0437 154.435 63.937 153.997 63.937 153.432V143.608H65.249V153.528C65.249 153.731 65.2863 153.88 65.361 153.976C65.4357 154.061 65.521 154.104 65.617 154.104C65.6597 154.104 65.697 154.104 65.729 154.104C65.7717 154.093 65.8303 154.083 65.905 154.072L66.081 155.064C65.9957 155.107 65.8943 155.139 65.777 155.16C65.6597 155.181 65.5103 155.192 65.329 155.192Z" fill="#4A4A4A"></path>
<g filter="url(#filter0_d_1581_167)">
<rect x="20" y="229" width="335" height="80" rx="3" fill="white"></rect>
<rect x="20" y="229" width="335" height="80" rx="3" stroke="#005DA6"></rect>
</g>
<path d="M30.924 247V239.176H32.688V245.512H35.784V247H30.924ZM38.4909 247.144C37.9469 247.144 37.5149 246.972 37.1949 246.628C36.8749 246.276 36.7149 245.848 36.7149 245.344C36.7149 244.72 36.9789 244.232 37.5069 243.88C38.0349 243.528 38.8869 243.292 40.0629 243.172C40.0469 242.908 39.9669 242.7 39.8229 242.548C39.6869 242.388 39.4549 242.308 39.1269 242.308C38.8789 242.308 38.6269 242.356 38.3709 242.452C38.1149 242.548 37.8429 242.68 37.5549 242.848L36.9189 241.684C37.2949 241.452 37.6949 241.264 38.1189 241.12C38.5509 240.976 38.9989 240.904 39.4629 240.904C40.2229 240.904 40.8069 241.124 41.2149 241.564C41.6229 242.004 41.8269 242.68 41.8269 243.592V247H40.3869L40.2669 246.388H40.2189C39.9709 246.612 39.7029 246.796 39.4149 246.94C39.1349 247.076 38.8269 247.144 38.4909 247.144ZM39.0909 245.776C39.2909 245.776 39.4629 245.732 39.6069 245.644C39.7589 245.548 39.9109 245.424 40.0629 245.272V244.228C39.4389 244.308 39.0069 244.436 38.7669 244.612C38.5269 244.78 38.4069 244.98 38.4069 245.212C38.4069 245.404 38.4669 245.548 38.5869 245.644C38.7149 245.732 38.8829 245.776 39.0909 245.776ZM46.4391 247.144C46.1751 247.144 45.9071 247.08 45.6351 246.952C45.3711 246.816 45.1231 246.62 44.8911 246.364H44.8431L44.6991 247H43.3191V238.588H45.0831V240.652L45.0351 241.564C45.2671 241.356 45.5191 241.196 45.7911 241.084C46.0631 240.964 46.3351 240.904 46.6071 240.904C47.0871 240.904 47.5031 241.028 47.8551 241.276C48.2071 241.524 48.4751 241.876 48.6591 242.332C48.8511 242.78 48.9471 243.308 48.9471 243.916C48.9471 244.596 48.8271 245.18 48.5871 245.668C48.3471 246.148 48.0351 246.516 47.6511 246.772C47.2751 247.02 46.8711 247.144 46.4391 247.144ZM46.0311 245.704C46.3351 245.704 46.5951 245.564 46.8111 245.284C47.0271 245.004 47.1351 244.56 47.1351 243.952C47.1351 242.88 46.7911 242.344 46.1031 242.344C45.7511 242.344 45.4111 242.524 45.0831 242.884V245.32C45.2431 245.464 45.4031 245.564 45.5631 245.62C45.7231 245.676 45.8791 245.704 46.0311 245.704ZM52.862 247.144C52.294 247.144 51.782 247.02 51.326 246.772C50.87 246.524 50.51 246.168 50.246 245.704C49.982 245.24 49.85 244.68 49.85 244.024C49.85 243.376 49.982 242.82 50.246 242.356C50.518 241.892 50.87 241.536 51.302 241.288C51.734 241.032 52.186 240.904 52.658 240.904C53.226 240.904 53.694 241.032 54.062 241.288C54.438 241.536 54.718 241.876 54.902 242.308C55.094 242.732 55.19 243.216 55.19 243.76C55.19 243.912 55.182 244.064 55.166 244.216C55.15 244.36 55.134 244.468 55.118 244.54H51.554C51.634 244.972 51.814 245.292 52.094 245.5C52.374 245.7 52.71 245.8 53.102 245.8C53.526 245.8 53.954 245.668 54.386 245.404L54.974 246.472C54.67 246.68 54.33 246.844 53.954 246.964C53.578 247.084 53.214 247.144 52.862 247.144ZM51.542 243.376H53.69C53.69 243.048 53.61 242.78 53.45 242.572C53.298 242.356 53.046 242.248 52.694 242.248C52.422 242.248 52.178 242.344 51.962 242.536C51.746 242.72 51.606 243 51.542 243.376ZM58.0289 247.144C57.4209 247.144 56.9969 246.964 56.7569 246.604C56.5249 246.236 56.4089 245.752 56.4089 245.152V238.588H58.1729V245.224C58.1729 245.408 58.2049 245.536 58.2689 245.608C58.3409 245.68 58.4129 245.716 58.4849 245.716C58.5249 245.716 58.5569 245.716 58.5809 245.716C58.6129 245.708 58.6529 245.7 58.7009 245.692L58.9169 247C58.8209 247.04 58.6969 247.072 58.5449 247.096C58.4009 247.128 58.2289 247.144 58.0289 247.144Z" fill="#005DA6"></path>
<path d="M31.44 271V260.504H34.432C35.2213 260.504 35.9093 260.6 36.496 260.792C37.0827 260.984 37.5413 261.309 37.872 261.768C38.2027 262.216 38.368 262.824 38.368 263.592C38.368 264.691 38.0107 265.507 37.296 266.04C36.5813 266.573 35.648 266.84 34.496 266.84H32.768V271H31.44ZM32.768 265.752H34.336C35.2533 265.752 35.9307 265.581 36.368 265.24C36.816 264.888 37.04 264.339 37.04 263.592C37.04 262.835 36.8053 262.312 36.336 262.024C35.8773 261.725 35.1893 261.576 34.272 261.576H32.768V265.752ZM41.7665 271.192C41.2758 271.192 40.9185 271.043 40.6945 270.744C40.4812 270.435 40.3745 269.997 40.3745 269.432V259.608H41.6865V269.528C41.6865 269.731 41.7238 269.88 41.7985 269.976C41.8732 270.061 41.9585 270.104 42.0545 270.104C42.0972 270.104 42.1345 270.104 42.1665 270.104C42.2092 270.093 42.2678 270.083 42.3425 270.072L42.5185 271.064C42.4332 271.107 42.3318 271.139 42.2145 271.16C42.0972 271.181 41.9478 271.192 41.7665 271.192ZM46.2446 271.192C45.594 271.192 45.05 271 44.6126 270.616C44.186 270.221 43.9726 269.677 43.9726 268.984C43.9726 268.131 44.3513 267.48 45.1086 267.032C45.8766 266.573 47.0873 266.253 48.7406 266.072C48.7406 265.741 48.6926 265.427 48.5966 265.128C48.5113 264.829 48.3513 264.589 48.1166 264.408C47.8926 264.216 47.5673 264.12 47.1406 264.12C46.6926 264.12 46.2713 264.205 45.8766 264.376C45.482 264.547 45.13 264.739 44.8206 264.952L44.3086 264.04C44.6713 263.805 45.114 263.581 45.6366 263.368C46.17 263.144 46.746 263.032 47.3646 263.032C48.314 263.032 49.002 263.325 49.4286 263.912C49.8553 264.488 50.0686 265.261 50.0686 266.232V271H48.9806L48.8686 270.072H48.8206C48.458 270.371 48.058 270.632 47.6206 270.856C47.194 271.08 46.7353 271.192 46.2446 271.192ZM46.6286 270.136C47.002 270.136 47.354 270.045 47.6846 269.864C48.0153 269.683 48.3673 269.427 48.7406 269.096V266.936C47.45 267.096 46.5433 267.336 46.0206 267.656C45.5086 267.976 45.2526 268.387 45.2526 268.888C45.2526 269.325 45.386 269.645 45.6526 269.848C45.9193 270.04 46.2446 270.136 46.6286 270.136ZM55.5871 271.192C54.9045 271.192 54.2858 271.032 53.7311 270.712C53.1765 270.392 52.7391 269.928 52.4191 269.32C52.0991 268.712 51.9391 267.981 51.9391 267.128C51.9391 266.253 52.1098 265.512 52.4511 264.904C52.8031 264.296 53.2618 263.832 53.8271 263.512C54.4031 263.192 55.0218 263.032 55.6831 263.032C56.1951 263.032 56.6325 263.123 56.9951 263.304C57.3685 263.485 57.6885 263.699 57.9551 263.944L57.2831 264.808C57.0591 264.605 56.8191 264.44 56.5631 264.312C56.3178 264.184 56.0405 264.12 55.7311 264.12C55.2618 264.12 54.8405 264.248 54.4671 264.504C54.1045 264.749 53.8165 265.101 53.6031 265.56C53.4005 266.008 53.2991 266.531 53.2991 267.128C53.2991 268.013 53.5178 268.733 53.9551 269.288C54.4031 269.832 54.9845 270.104 55.6991 270.104C56.0618 270.104 56.3978 270.029 56.7071 269.88C57.0165 269.72 57.2885 269.533 57.5231 269.32L58.0991 270.2C57.7471 270.509 57.3578 270.755 56.9311 270.936C56.5045 271.107 56.0565 271.192 55.5871 271.192ZM62.6203 271.192C61.9269 271.192 61.2976 271.032 60.7323 270.712C60.1669 270.381 59.7189 269.912 59.3883 269.304C59.0576 268.696 58.8923 267.971 58.8923 267.128C58.8923 266.275 59.0576 265.544 59.3883 264.936C59.7296 264.328 60.1669 263.859 60.7003 263.528C61.2336 263.197 61.7936 263.032 62.3802 263.032C63.3723 263.032 64.1349 263.363 64.6683 264.024C65.2123 264.685 65.4843 265.571 65.4843 266.68C65.4843 266.819 65.4789 266.957 65.4683 267.096C65.4683 267.224 65.4576 267.336 65.4363 267.432H60.1883C60.2416 268.253 60.4976 268.909 60.9563 269.4C61.4256 269.891 62.0336 270.136 62.7803 270.136C63.1536 270.136 63.4949 270.083 63.8043 269.976C64.1243 269.859 64.4283 269.709 64.7163 269.528L65.1803 270.392C64.8496 270.605 64.4709 270.792 64.0443 270.952C63.6283 271.112 63.1536 271.192 62.6203 271.192ZM60.1723 266.488H64.3323C64.3323 265.699 64.1616 265.101 63.8203 264.696C63.4896 264.28 63.0203 264.072 62.4123 264.072C61.8683 264.072 61.3776 264.285 60.9403 264.712C60.5136 265.128 60.2576 265.72 60.1723 266.488ZM67.4058 271V259.608H68.7178V262.712L68.6698 264.312C69.0431 263.96 69.4324 263.661 69.8378 263.416C70.2538 263.16 70.7284 263.032 71.2618 263.032C72.0831 263.032 72.6804 263.293 73.0538 263.816C73.4378 264.328 73.6298 265.08 73.6298 266.072V271H72.3178V266.248C72.3178 265.523 72.2004 264.995 71.9658 264.664C71.7311 264.333 71.3578 264.168 70.8458 264.168C70.4511 264.168 70.0938 264.269 69.7738 264.472C69.4644 264.675 69.1124 264.973 68.7178 265.368V271H67.4058ZM79.1329 271.192C78.5035 271.192 77.9115 271.032 77.3569 270.712C76.8129 270.392 76.3702 269.928 76.0289 269.32C75.6982 268.712 75.5329 267.981 75.5329 267.128C75.5329 266.253 75.6982 265.512 76.0289 264.904C76.3702 264.296 76.8129 263.832 77.3569 263.512C77.9115 263.192 78.5035 263.032 79.1329 263.032C79.7729 263.032 80.3649 263.192 80.9089 263.512C81.4529 263.832 81.8902 264.296 82.2209 264.904C82.5622 265.512 82.7329 266.253 82.7329 267.128C82.7329 267.981 82.5622 268.712 82.2209 269.32C81.8902 269.928 81.4529 270.392 80.9089 270.712C80.3649 271.032 79.7729 271.192 79.1329 271.192ZM79.1329 270.104C79.8049 270.104 80.3435 269.832 80.7489 269.288C81.1649 268.733 81.3729 268.013 81.3729 267.128C81.3729 266.232 81.1649 265.507 80.7489 264.952C80.3435 264.397 79.8049 264.12 79.1329 264.12C78.4715 264.12 77.9329 264.397 77.5169 264.952C77.1009 265.507 76.8929 266.232 76.8929 267.128C76.8929 268.013 77.1009 268.733 77.5169 269.288C77.9329 269.832 78.4715 270.104 79.1329 270.104ZM86.1728 271.192C85.6821 271.192 85.3248 271.043 85.1008 270.744C84.8874 270.435 84.7808 269.997 84.7808 269.432V259.608H86.0928V269.528C86.0928 269.731 86.1301 269.88 86.2048 269.976C86.2794 270.061 86.3648 270.104 86.4608 270.104C86.5034 270.104 86.5408 270.104 86.5728 270.104C86.6154 270.093 86.6741 270.083 86.7488 270.072L86.9248 271.064C86.8394 271.107 86.7381 271.139 86.6208 271.16C86.5034 271.181 86.3541 271.192 86.1728 271.192ZM91.5149 271.192C90.5442 271.192 89.7655 270.84 89.1789 270.136C88.5922 269.421 88.2989 268.419 88.2989 267.128C88.2989 266.285 88.4535 265.56 88.7629 264.952C89.0829 264.333 89.4989 263.859 90.0109 263.528C90.5335 263.197 91.0882 263.032 91.6749 263.032C92.1229 263.032 92.5122 263.112 92.8429 263.272C93.1735 263.432 93.5095 263.651 93.8509 263.928L93.7869 262.6V259.608H95.1149V271H94.0269L93.9149 270.088H93.8669C93.5682 270.387 93.2162 270.648 92.8109 270.872C92.4055 271.085 91.9735 271.192 91.5149 271.192ZM91.8029 270.088C92.4855 270.088 93.1469 269.731 93.7869 269.016V264.952C93.4562 264.653 93.1362 264.445 92.8269 264.328C92.5282 264.2 92.2189 264.136 91.8989 264.136C91.4829 264.136 91.1042 264.264 90.7629 264.52C90.4322 264.765 90.1655 265.112 89.9629 265.56C89.7602 265.997 89.6589 266.515 89.6589 267.112C89.6589 268.04 89.8455 268.771 90.2189 269.304C90.5922 269.827 91.1202 270.088 91.8029 270.088ZM100.886 271.192C100.193 271.192 99.5632 271.032 98.9979 270.712C98.4325 270.381 97.9845 269.912 97.6539 269.304C97.3232 268.696 97.1579 267.971 97.1579 267.128C97.1579 266.275 97.3232 265.544 97.6539 264.936C97.9952 264.328 98.4325 263.859 98.9659 263.528C99.4992 263.197 100.059 263.032 100.646 263.032C101.638 263.032 102.401 263.363 102.934 264.024C103.478 264.685 103.75 265.571 103.75 266.68C103.75 266.819 103.745 266.957 103.734 267.096C103.734 267.224 103.723 267.336 103.702 267.432H98.4539C98.5072 268.253 98.7632 268.909 99.2219 269.4C99.6912 269.891 100.299 270.136 101.046 270.136C101.419 270.136 101.761 270.083 102.07 269.976C102.39 269.859 102.694 269.709 102.982 269.528L103.446 270.392C103.115 270.605 102.737 270.792 102.31 270.952C101.894 271.112 101.419 271.192 100.886 271.192ZM98.4379 266.488H102.598C102.598 265.699 102.427 265.101 102.086 264.696C101.755 264.28 101.286 264.072 100.678 264.072C100.134 264.072 99.6432 264.285 99.2059 264.712C98.7792 265.128 98.5232 265.72 98.4379 266.488ZM105.671 271V263.224H106.759L106.871 264.632H106.919C107.186 264.141 107.511 263.752 107.895 263.464C108.279 263.176 108.69 263.032 109.127 263.032C109.437 263.032 109.714 263.085 109.959 263.192L109.703 264.344C109.575 264.301 109.458 264.269 109.351 264.248C109.245 264.227 109.111 264.216 108.951 264.216C108.621 264.216 108.274 264.349 107.911 264.616C107.559 264.883 107.25 265.347 106.983 266.008V271H105.671Z" fill="#777777"></path>
<path d="M31 255V275" stroke="black" stroke-width="0.5"></path>
<g filter="url(#filter1_d_1581_167)">
<rect x="20" y="333" width="335" height="80" rx="3" fill="white"></rect>
<rect x="20" y="333" width="335" height="80" rx="3" stroke="#005DA6"></rect>
</g>
<path d="M30.924 351V343.176H32.688V349.512H35.784V351H30.924ZM38.4909 351.144C37.9469 351.144 37.5149 350.972 37.1949 350.628C36.8749 350.276 36.7149 349.848 36.7149 349.344C36.7149 348.72 36.9789 348.232 37.5069 347.88C38.0349 347.528 38.8869 347.292 40.0629 347.172C40.0469 346.908 39.9669 346.7 39.8229 346.548C39.6869 346.388 39.4549 346.308 39.1269 346.308C38.8789 346.308 38.6269 346.356 38.3709 346.452C38.1149 346.548 37.8429 346.68 37.5549 346.848L36.9189 345.684C37.2949 345.452 37.6949 345.264 38.1189 345.12C38.5509 344.976 38.9989 344.904 39.4629 344.904C40.2229 344.904 40.8069 345.124 41.2149 345.564C41.6229 346.004 41.8269 346.68 41.8269 347.592V351H40.3869L40.2669 350.388H40.2189C39.9709 350.612 39.7029 350.796 39.4149 350.94C39.1349 351.076 38.8269 351.144 38.4909 351.144ZM39.0909 349.776C39.2909 349.776 39.4629 349.732 39.6069 349.644C39.7589 349.548 39.9109 349.424 40.0629 349.272V348.228C39.4389 348.308 39.0069 348.436 38.7669 348.612C38.5269 348.78 38.4069 348.98 38.4069 349.212C38.4069 349.404 38.4669 349.548 38.5869 349.644C38.7149 349.732 38.8829 349.776 39.0909 349.776ZM46.4391 351.144C46.1751 351.144 45.9071 351.08 45.6351 350.952C45.3711 350.816 45.1231 350.62 44.8911 350.364H44.8431L44.6991 351H43.3191V342.588H45.0831V344.652L45.0351 345.564C45.2671 345.356 45.5191 345.196 45.7911 345.084C46.0631 344.964 46.3351 344.904 46.6071 344.904C47.0871 344.904 47.5031 345.028 47.8551 345.276C48.2071 345.524 48.4751 345.876 48.6591 346.332C48.8511 346.78 48.9471 347.308 48.9471 347.916C48.9471 348.596 48.8271 349.18 48.5871 349.668C48.3471 350.148 48.0351 350.516 47.6511 350.772C47.2751 351.02 46.8711 351.144 46.4391 351.144ZM46.0311 349.704C46.3351 349.704 46.5951 349.564 46.8111 349.284C47.0271 349.004 47.1351 348.56 47.1351 347.952C47.1351 346.88 46.7911 346.344 46.1031 346.344C45.7511 346.344 45.4111 346.524 45.0831 346.884V349.32C45.2431 349.464 45.4031 349.564 45.5631 349.62C45.7231 349.676 45.8791 349.704 46.0311 349.704ZM52.862 351.144C52.294 351.144 51.782 351.02 51.326 350.772C50.87 350.524 50.51 350.168 50.246 349.704C49.982 349.24 49.85 348.68 49.85 348.024C49.85 347.376 49.982 346.82 50.246 346.356C50.518 345.892 50.87 345.536 51.302 345.288C51.734 345.032 52.186 344.904 52.658 344.904C53.226 344.904 53.694 345.032 54.062 345.288C54.438 345.536 54.718 345.876 54.902 346.308C55.094 346.732 55.19 347.216 55.19 347.76C55.19 347.912 55.182 348.064 55.166 348.216C55.15 348.36 55.134 348.468 55.118 348.54H51.554C51.634 348.972 51.814 349.292 52.094 349.5C52.374 349.7 52.71 349.8 53.102 349.8C53.526 349.8 53.954 349.668 54.386 349.404L54.974 350.472C54.67 350.68 54.33 350.844 53.954 350.964C53.578 351.084 53.214 351.144 52.862 351.144ZM51.542 347.376H53.69C53.69 347.048 53.61 346.78 53.45 346.572C53.298 346.356 53.046 346.248 52.694 346.248C52.422 346.248 52.178 346.344 51.962 346.536C51.746 346.72 51.606 347 51.542 347.376ZM58.0289 351.144C57.4209 351.144 56.9969 350.964 56.7569 350.604C56.5249 350.236 56.4089 349.752 56.4089 349.152V342.588H58.1729V349.224C58.1729 349.408 58.2049 349.536 58.2689 349.608C58.3409 349.68 58.4129 349.716 58.4849 349.716C58.5249 349.716 58.5569 349.716 58.5809 349.716C58.6129 349.708 58.6529 349.7 58.7009 349.692L58.9169 351C58.8209 351.04 58.6969 351.072 58.5449 351.096C58.4009 351.128 58.2289 351.144 58.0289 351.144Z" fill="#005DA6"></path>
<path d="M31.44 375V364.504H32.768V375H31.44ZM35.5151 375V367.224H36.6031L36.7151 368.344H36.7631C37.1365 367.971 37.5311 367.661 37.9471 367.416C38.3631 367.16 38.8378 367.032 39.3711 367.032C40.1925 367.032 40.7898 367.293 41.1631 367.816C41.5471 368.328 41.7391 369.08 41.7391 370.072V375H40.4271V370.248C40.4271 369.523 40.3098 368.995 40.0751 368.664C39.8405 368.333 39.4671 368.168 38.9551 368.168C38.5605 368.168 38.2031 368.269 37.8831 368.472C37.5738 368.675 37.2218 368.973 36.8271 369.368V375H35.5151ZM44.2651 378.28V367.224H45.3531L45.4651 368.12H45.5131C45.8651 367.821 46.2491 367.565 46.6651 367.352C47.0918 367.139 47.5345 367.032 47.9931 367.032C48.9958 367.032 49.7585 367.395 50.2811 368.12C50.8038 368.835 51.0651 369.795 51.0651 371C51.0651 371.875 50.9051 372.627 50.5851 373.256C50.2758 373.885 49.8651 374.365 49.3531 374.696C48.8518 375.027 48.3025 375.192 47.7051 375.192C47.3425 375.192 46.9798 375.112 46.6171 374.952C46.2651 374.792 45.9078 374.573 45.5451 374.296L45.5771 375.656V378.28H44.2651ZM47.4811 374.088C48.1211 374.088 48.6491 373.816 49.0651 373.272C49.4918 372.717 49.7051 371.96 49.7051 371C49.7051 370.147 49.5451 369.459 49.2251 368.936C48.9158 368.403 48.3931 368.136 47.6571 368.136C47.3265 368.136 46.9905 368.227 46.6491 368.408C46.3185 368.589 45.9611 368.851 45.5771 369.192V373.272C45.9291 373.571 46.2705 373.784 46.6011 373.912C46.9318 374.029 47.2251 374.088 47.4811 374.088Z" fill="black"></path>
<path d="M51 358.312V378.562" stroke="black" stroke-width="0.5"></path>
<rect x="20" y="437" width="335" height="80" rx="3" fill="white" stroke="#949494"></rect>
<path d="M30.924 455V447.176H32.688V453.512H35.784V455H30.924ZM38.4909 455.144C37.9469 455.144 37.5149 454.972 37.1949 454.628C36.8749 454.276 36.7149 453.848 36.7149 453.344C36.7149 452.72 36.9789 452.232 37.5069 451.88C38.0349 451.528 38.8869 451.292 40.0629 451.172C40.0469 450.908 39.9669 450.7 39.8229 450.548C39.6869 450.388 39.4549 450.308 39.1269 450.308C38.8789 450.308 38.6269 450.356 38.3709 450.452C38.1149 450.548 37.8429 450.68 37.5549 450.848L36.9189 449.684C37.2949 449.452 37.6949 449.264 38.1189 449.12C38.5509 448.976 38.9989 448.904 39.4629 448.904C40.2229 448.904 40.8069 449.124 41.2149 449.564C41.6229 450.004 41.8269 450.68 41.8269 451.592V455H40.3869L40.2669 454.388H40.2189C39.9709 454.612 39.7029 454.796 39.4149 454.94C39.1349 455.076 38.8269 455.144 38.4909 455.144ZM39.0909 453.776C39.2909 453.776 39.4629 453.732 39.6069 453.644C39.7589 453.548 39.9109 453.424 40.0629 453.272V452.228C39.4389 452.308 39.0069 452.436 38.7669 452.612C38.5269 452.78 38.4069 452.98 38.4069 453.212C38.4069 453.404 38.4669 453.548 38.5869 453.644C38.7149 453.732 38.8829 453.776 39.0909 453.776ZM46.4391 455.144C46.1751 455.144 45.9071 455.08 45.6351 454.952C45.3711 454.816 45.1231 454.62 44.8911 454.364H44.8431L44.6991 455H43.3191V446.588H45.0831V448.652L45.0351 449.564C45.2671 449.356 45.5191 449.196 45.7911 449.084C46.0631 448.964 46.3351 448.904 46.6071 448.904C47.0871 448.904 47.5031 449.028 47.8551 449.276C48.2071 449.524 48.4751 449.876 48.6591 450.332C48.8511 450.78 48.9471 451.308 48.9471 451.916C48.9471 452.596 48.8271 453.18 48.5871 453.668C48.3471 454.148 48.0351 454.516 47.6511 454.772C47.2751 455.02 46.8711 455.144 46.4391 455.144ZM46.0311 453.704C46.3351 453.704 46.5951 453.564 46.8111 453.284C47.0271 453.004 47.1351 452.56 47.1351 451.952C47.1351 450.88 46.7911 450.344 46.1031 450.344C45.7511 450.344 45.4111 450.524 45.0831 450.884V453.32C45.2431 453.464 45.4031 453.564 45.5631 453.62C45.7231 453.676 45.8791 453.704 46.0311 453.704ZM52.862 455.144C52.294 455.144 51.782 455.02 51.326 454.772C50.87 454.524 50.51 454.168 50.246 453.704C49.982 453.24 49.85 452.68 49.85 452.024C49.85 451.376 49.982 450.82 50.246 450.356C50.518 449.892 50.87 449.536 51.302 449.288C51.734 449.032 52.186 448.904 52.658 448.904C53.226 448.904 53.694 449.032 54.062 449.288C54.438 449.536 54.718 449.876 54.902 450.308C55.094 450.732 55.19 451.216 55.19 451.76C55.19 451.912 55.182 452.064 55.166 452.216C55.15 452.36 55.134 452.468 55.118 452.54H51.554C51.634 452.972 51.814 453.292 52.094 453.5C52.374 453.7 52.71 453.8 53.102 453.8C53.526 453.8 53.954 453.668 54.386 453.404L54.974 454.472C54.67 454.68 54.33 454.844 53.954 454.964C53.578 455.084 53.214 455.144 52.862 455.144ZM51.542 451.376H53.69C53.69 451.048 53.61 450.78 53.45 450.572C53.298 450.356 53.046 450.248 52.694 450.248C52.422 450.248 52.178 450.344 51.962 450.536C51.746 450.72 51.606 451 51.542 451.376ZM58.0289 455.144C57.4209 455.144 56.9969 454.964 56.7569 454.604C56.5249 454.236 56.4089 453.752 56.4089 453.152V446.588H58.1729V453.224C58.1729 453.408 58.2049 453.536 58.2689 453.608C58.3409 453.68 58.4129 453.716 58.4849 453.716C58.5249 453.716 58.5569 453.716 58.5809 453.716C58.6129 453.708 58.6529 453.7 58.7009 453.692L58.9169 455C58.8209 455.04 58.6969 455.072 58.5449 455.096C58.4009 455.128 58.2289 455.144 58.0289 455.144Z" fill="#005DA6"></path>
<path d="M33.616 479V469.624H30.448V468.504H38.128V469.624H34.96V479H33.616ZM41.9796 479.192C41.2863 479.192 40.657 479.032 40.0916 478.712C39.5263 478.381 39.0783 477.912 38.7476 477.304C38.417 476.696 38.2516 475.971 38.2516 475.128C38.2516 474.275 38.417 473.544 38.7476 472.936C39.089 472.328 39.5263 471.859 40.0596 471.528C40.593 471.197 41.153 471.032 41.7396 471.032C42.7316 471.032 43.4943 471.363 44.0276 472.024C44.5716 472.685 44.8436 473.571 44.8436 474.68C44.8436 474.819 44.8383 474.957 44.8276 475.096C44.8276 475.224 44.817 475.336 44.7956 475.432H39.5476C39.601 476.253 39.857 476.909 40.3156 477.4C40.785 477.891 41.393 478.136 42.1396 478.136C42.513 478.136 42.8543 478.083 43.1636 477.976C43.4836 477.859 43.7876 477.709 44.0756 477.528L44.5396 478.392C44.209 478.605 43.8303 478.792 43.4036 478.952C42.9876 479.112 42.513 479.192 41.9796 479.192ZM39.5316 474.488H43.6916C43.6916 473.699 43.521 473.101 43.1796 472.696C42.849 472.28 42.3796 472.072 41.7716 472.072C41.2276 472.072 40.737 472.285 40.2996 472.712C39.873 473.128 39.617 473.72 39.5316 474.488ZM45.5678 479L48.1118 474.936L45.7598 471.224H47.1838L48.2238 472.936C48.3411 473.139 48.4638 473.352 48.5918 473.576C48.7198 473.8 48.8531 474.019 48.9918 474.232H49.0558C49.1731 474.019 49.2904 473.8 49.4078 473.576C49.5251 473.352 49.6424 473.139 49.7598 472.936L50.7038 471.224H52.0798L49.7278 475.08L52.2558 479H50.8318L49.6958 477.192C49.5571 476.957 49.4184 476.723 49.2798 476.488C49.1411 476.253 48.9971 476.024 48.8478 475.8H48.7838C48.6451 476.024 48.5118 476.253 48.3838 476.488C48.2558 476.712 48.1278 476.947 47.9998 477.192L46.9438 479H45.5678ZM55.8538 479.192C55.0218 479.192 54.4404 478.952 54.1098 478.472C53.7898 477.992 53.6298 477.368 53.6298 476.6V472.296H52.4778V471.304L53.6938 471.224L53.8538 469.048H54.9578V471.224H57.0538V472.296H54.9578V476.616C54.9578 477.096 55.0431 477.469 55.2138 477.736C55.3951 477.992 55.7098 478.12 56.1578 478.12C56.2964 478.12 56.4458 478.099 56.6058 478.056C56.7658 478.003 56.9098 477.955 57.0378 477.912L57.2938 478.904C57.0804 478.979 56.8458 479.043 56.5898 479.096C56.3444 479.16 56.0991 479.192 55.8538 479.192ZM62.1431 479V468.504H63.4711V479H62.1431ZM66.2183 479V471.224H67.3063L67.4183 472.344H67.4663C67.8396 471.971 68.2343 471.661 68.6503 471.416C69.0663 471.16 69.5409 471.032 70.0743 471.032C70.8956 471.032 71.4929 471.293 71.8663 471.816C72.2503 472.328 72.4423 473.08 72.4423 474.072V479H71.1303V474.248C71.1303 473.523 71.0129 472.995 70.7783 472.664C70.5436 472.333 70.1703 472.168 69.6583 472.168C69.2636 472.168 68.9063 472.269 68.5863 472.472C68.2769 472.675 67.9249 472.973 67.5303 473.368V479H66.2183ZM74.9683 482.28V471.224H76.0563L76.1683 472.12H76.2163C76.5683 471.821 76.9523 471.565 77.3683 471.352C77.7949 471.139 78.2376 471.032 78.6963 471.032C79.6989 471.032 80.4616 471.395 80.9843 472.12C81.5069 472.835 81.7683 473.795 81.7683 475C81.7683 475.875 81.6083 476.627 81.2883 477.256C80.9789 477.885 80.5683 478.365 80.0563 478.696C79.5549 479.027 79.0056 479.192 78.4083 479.192C78.0456 479.192 77.6829 479.112 77.3203 478.952C76.9683 478.792 76.6109 478.573 76.2483 478.296L76.2803 479.656V482.28H74.9683ZM78.1843 478.088C78.8243 478.088 79.3523 477.816 79.7683 477.272C80.1949 476.717 80.4083 475.96 80.4083 475C80.4083 474.147 80.2483 473.459 79.9283 472.936C79.6189 472.403 79.0963 472.136 78.3602 472.136C78.0296 472.136 77.6936 472.227 77.3523 472.408C77.0216 472.589 76.6643 472.851 76.2803 473.192V477.272C76.6323 477.571 76.9736 477.784 77.3043 477.912C77.6349 478.029 77.9283 478.088 78.1843 478.088ZM86.1153 479.192C85.2939 479.192 84.6913 478.936 84.3073 478.424C83.9233 477.901 83.7313 477.144 83.7313 476.152V471.224H85.0593V475.976C85.0593 476.701 85.1713 477.229 85.3953 477.56C85.6299 477.891 86.0033 478.056 86.5153 478.056C86.9206 478.056 87.2779 477.955 87.5873 477.752C87.9073 477.539 88.2486 477.203 88.6113 476.744V471.224H89.9233V479H88.8353L88.7233 477.784H88.6753C88.3126 478.211 87.9286 478.552 87.5233 478.808C87.1179 479.064 86.6486 479.192 86.1153 479.192ZM94.9944 479.192C94.1624 479.192 93.581 478.952 93.2504 478.472C92.9304 477.992 92.7704 477.368 92.7704 476.6V472.296H91.6184V471.304L92.8344 471.224L92.9944 469.048H94.0984V471.224H96.1944V472.296H94.0984V476.616C94.0984 477.096 94.1837 477.469 94.3544 477.736C94.5357 477.992 94.8504 478.12 95.2984 478.12C95.437 478.12 95.5864 478.099 95.7464 478.056C95.9064 478.003 96.0504 477.955 96.1784 477.912L96.4344 478.904C96.221 478.979 95.9864 479.043 95.7304 479.096C95.485 479.16 95.2397 479.192 94.9944 479.192Z" fill="black"></path>
<rect x="20" y="541" width="335" height="80" rx="3" fill="white" stroke="#DCDCDC"></rect>
<path d="M31.44 571V560.504H32.768V569.864H37.36V571H31.44ZM40.8853 571.192C40.2346 571.192 39.6906 571 39.2533 570.616C38.8266 570.221 38.6133 569.677 38.6133 568.984C38.6133 568.131 38.9919 567.48 39.7493 567.032C40.5173 566.573 41.7279 566.253 43.3813 566.072C43.3813 565.741 43.3333 565.427 43.2373 565.128C43.1519 564.829 42.9919 564.589 42.7573 564.408C42.5333 564.216 42.2079 564.12 41.7812 564.12C41.3333 564.12 40.9119 564.205 40.5173 564.376C40.1226 564.547 39.7706 564.739 39.4613 564.952L38.9493 564.04C39.3119 563.805 39.7546 563.581 40.2773 563.368C40.8106 563.144 41.3866 563.032 42.0052 563.032C42.9546 563.032 43.6426 563.325 44.0693 563.912C44.4959 564.488 44.7093 565.261 44.7093 566.232V571H43.6213L43.5093 570.072H43.4613C43.0986 570.371 42.6986 570.632 42.2613 570.856C41.8346 571.08 41.3759 571.192 40.8853 571.192ZM41.2693 570.136C41.6426 570.136 41.9946 570.045 42.3253 569.864C42.6559 569.683 43.0079 569.427 43.3813 569.096V566.936C42.0906 567.096 41.1839 567.336 40.6613 567.656C40.1493 567.976 39.8932 568.387 39.8932 568.888C39.8932 569.325 40.0266 569.645 40.2933 569.848C40.5599 570.04 40.8853 570.136 41.2693 570.136ZM50.5958 571.192C50.2331 571.192 49.8544 571.107 49.4598 570.936C49.0758 570.755 48.7131 570.509 48.3718 570.2H48.3238L48.2118 571H47.1558V559.608H48.4678V562.712L48.4358 564.12C48.7878 563.811 49.1718 563.555 49.5878 563.352C50.0144 563.139 50.4411 563.032 50.8678 563.032C51.8811 563.032 52.6491 563.389 53.1718 564.104C53.6944 564.819 53.9558 565.779 53.9558 566.984C53.9558 567.869 53.7958 568.627 53.4758 569.256C53.1664 569.885 52.7558 570.365 52.2438 570.696C51.7424 571.027 51.1931 571.192 50.5958 571.192ZM50.3718 570.088C51.0118 570.088 51.5398 569.816 51.9558 569.272C52.3824 568.717 52.5958 567.96 52.5958 567C52.5958 566.147 52.4358 565.459 52.1158 564.936C51.8064 564.403 51.2838 564.136 50.5477 564.136C50.2171 564.136 49.8811 564.227 49.5398 564.408C49.1984 564.589 48.8411 564.851 48.4678 565.192V569.272C48.8091 569.571 49.1451 569.784 49.4758 569.912C49.8171 570.029 50.1158 570.088 50.3718 570.088ZM59.1515 571.192C58.4582 571.192 57.8288 571.032 57.2635 570.712C56.6982 570.381 56.2502 569.912 55.9195 569.304C55.5888 568.696 55.4235 567.971 55.4235 567.128C55.4235 566.275 55.5888 565.544 55.9195 564.936C56.2608 564.328 56.6982 563.859 57.2315 563.528C57.7648 563.197 58.3248 563.032 58.9115 563.032C59.9035 563.032 60.6662 563.363 61.1995 564.024C61.7435 564.685 62.0155 565.571 62.0155 566.68C62.0155 566.819 62.0102 566.957 61.9995 567.096C61.9995 567.224 61.9888 567.336 61.9675 567.432H56.7195C56.7728 568.253 57.0288 568.909 57.4875 569.4C57.9568 569.891 58.5648 570.136 59.3115 570.136C59.6848 570.136 60.0262 570.083 60.3355 569.976C60.6555 569.859 60.9595 569.709 61.2475 569.528L61.7115 570.392C61.3808 570.605 61.0022 570.792 60.5755 570.952C60.1595 571.112 59.6848 571.192 59.1515 571.192ZM56.7035 566.488H60.8635C60.8635 565.699 60.6928 565.101 60.3515 564.696C60.0208 564.28 59.5515 564.072 58.9435 564.072C58.3995 564.072 57.9088 564.285 57.4715 564.712C57.0448 565.128 56.7888 565.72 56.7035 566.488ZM65.329 571.192C64.8383 571.192 64.481 571.043 64.257 570.744C64.0437 570.435 63.937 569.997 63.937 569.432V559.608H65.249V569.528C65.249 569.731 65.2863 569.88 65.361 569.976C65.4357 570.061 65.521 570.104 65.617 570.104C65.6597 570.104 65.697 570.104 65.729 570.104C65.7717 570.093 65.8303 570.083 65.905 570.072L66.081 571.064C65.9957 571.107 65.8943 571.139 65.777 571.16C65.6597 571.181 65.5103 571.192 65.329 571.192Z" fill="#DCDCDC"></path>
<rect x="20" y="21" width="335" height="80" rx="3" fill="white"></rect>
<rect x="20" y="21" width="335" height="80" rx="3" stroke="#949494"></rect>
<path d="M31.44 51V40.504H32.768V49.864H37.36V51H31.44ZM40.8853 51.192C40.2346 51.192 39.6906 51 39.2533 50.616C38.8266 50.2213 38.6133 49.6773 38.6133 48.984C38.6133 48.1307 38.9919 47.48 39.7493 47.032C40.5173 46.5733 41.7279 46.2533 43.3813 46.072C43.3813 45.7413 43.3333 45.4267 43.2373 45.128C43.1519 44.8293 42.9919 44.5893 42.7573 44.408C42.5333 44.216 42.2079 44.12 41.7812 44.12C41.3333 44.12 40.9119 44.2053 40.5173 44.376C40.1226 44.5467 39.7706 44.7387 39.4613 44.952L38.9493 44.04C39.3119 43.8053 39.7546 43.5813 40.2773 43.368C40.8106 43.144 41.3866 43.032 42.0052 43.032C42.9546 43.032 43.6426 43.3253 44.0693 43.912C44.4959 44.488 44.7093 45.2613 44.7093 46.232V51H43.6213L43.5093 50.072H43.4613C43.0986 50.3707 42.6986 50.632 42.2613 50.856C41.8346 51.08 41.3759 51.192 40.8853 51.192ZM41.2693 50.136C41.6426 50.136 41.9946 50.0453 42.3253 49.864C42.6559 49.6827 43.0079 49.4267 43.3813 49.096V46.936C42.0906 47.096 41.1839 47.336 40.6613 47.656C40.1493 47.976 39.8932 48.3867 39.8932 48.888C39.8932 49.3253 40.0266 49.6453 40.2933 49.848C40.5599 50.04 40.8853 50.136 41.2693 50.136ZM50.5958 51.192C50.2331 51.192 49.8544 51.1067 49.4598 50.936C49.0758 50.7547 48.7131 50.5093 48.3718 50.2H48.3238L48.2118 51H47.1558V39.608H48.4678V42.712L48.4358 44.12C48.7878 43.8107 49.1718 43.5547 49.5878 43.352C50.0144 43.1387 50.4411 43.032 50.8678 43.032C51.8811 43.032 52.6491 43.3893 53.1718 44.104C53.6944 44.8187 53.9558 45.7787 53.9558 46.984C53.9558 47.8693 53.7958 48.6267 53.4758 49.256C53.1664 49.8853 52.7558 50.3653 52.2438 50.696C51.7424 51.0267 51.1931 51.192 50.5958 51.192ZM50.3718 50.088C51.0118 50.088 51.5398 49.816 51.9558 49.272C52.3824 48.7173 52.5958 47.96 52.5958 47C52.5958 46.1467 52.4358 45.4587 52.1158 44.936C51.8064 44.4027 51.2838 44.136 50.5477 44.136C50.2171 44.136 49.8811 44.2267 49.5398 44.408C49.1984 44.5893 48.8411 44.8507 48.4678 45.192V49.272C48.8091 49.5707 49.1451 49.784 49.4758 49.912C49.8171 50.0293 50.1158 50.088 50.3718 50.088ZM59.1515 51.192C58.4582 51.192 57.8288 51.032 57.2635 50.712C56.6982 50.3813 56.2502 49.912 55.9195 49.304C55.5888 48.696 55.4235 47.9707 55.4235 47.128C55.4235 46.2747 55.5888 45.544 55.9195 44.936C56.2608 44.328 56.6982 43.8587 57.2315 43.528C57.7648 43.1973 58.3248 43.032 58.9115 43.032C59.9035 43.032 60.6662 43.3627 61.1995 44.024C61.7435 44.6853 62.0155 45.5707 62.0155 46.68C62.0155 46.8187 62.0102 46.9573 61.9995 47.096C61.9995 47.224 61.9888 47.336 61.9675 47.432H56.7195C56.7728 48.2533 57.0288 48.9093 57.4875 49.4C57.9568 49.8907 58.5648 50.136 59.3115 50.136C59.6848 50.136 60.0262 50.0827 60.3355 49.976C60.6555 49.8587 60.9595 49.7093 61.2475 49.528L61.7115 50.392C61.3808 50.6053 61.0022 50.792 60.5755 50.952C60.1595 51.112 59.6848 51.192 59.1515 51.192ZM56.7035 46.488H60.8635C60.8635 45.6987 60.6928 45.1013 60.3515 44.696C60.0208 44.28 59.5515 44.072 58.9435 44.072C58.3995 44.072 57.9088 44.2853 57.4715 44.712C57.0448 45.128 56.7888 45.72 56.7035 46.488ZM65.329 51.192C64.8383 51.192 64.481 51.0427 64.257 50.744C64.0437 50.4347 63.937 49.9973 63.937 49.432V39.608H65.249V49.528C65.249 49.7307 65.2863 49.88 65.361 49.976C65.4357 50.0613 65.521 50.104 65.617 50.104C65.6597 50.104 65.697 50.104 65.729 50.104C65.7717 50.0933 65.8303 50.0827 65.905 50.072L66.081 51.064C65.9957 51.1067 65.8943 51.1387 65.777 51.16C65.6597 51.1813 65.5103 51.192 65.329 51.192Z" fill="#4A4A4A"></path>
<defs>
<filter id="filter0_d_1581_167" x="9.5" y="218.5" width="356" height="101" filterUnits="userSpaceOnUse" color-interpolation-filters="sRGB">
<feFlood flood-opacity="0" result="BackgroundImageFix"></feFlood>
<feColorMatrix in="SourceAlpha" type="matrix" values="0 0 0 0 0 0 0 0 0 0 0 0 0 0 0 0 0 0 127 0" result="hardAlpha"></feColorMatrix>
<feOffset></feOffset>
<feGaussianBlur stdDeviation="5"></feGaussianBlur>
<feColorMatrix type="matrix" values="0 0 0 0 0 0 0 0 0 0.364706 0 0 0 0 0.65098 0 0 0 0.5 0"></feColorMatrix>
<feBlend mode="normal" in2="BackgroundImageFix" result="effect1_dropShadow_1581_167"></feBlend>
<feBlend mode="normal" in="SourceGraphic" in2="effect1_dropShadow_1581_167" result="shape"></feBlend>
</filter>
<filter id="filter1_d_1581_167" x="9.5" y="322.5" width="356" height="101" filterUnits="userSpaceOnUse" color-interpolation-filters="sRGB">
<feFlood flood-opacity="0" result="BackgroundImageFix"></feFlood>
<feColorMatrix in="SourceAlpha" type="matrix" values="0 0 0 0 0 0 0 0 0 0 0 0 0 0 0 0 0 0 127 0" result="hardAlpha"></feColorMatrix>
<feOffset></feOffset>
<feGaussianBlur stdDeviation="5"></feGaussianBlur>
<feColorMatrix type="matrix" values="0 0 0 0 0 0 0 0 0 0.364706 0 0 0 0 0.65098 0 0 0 0.5 0"></feColorMatrix>
<feBlend mode="normal" in2="BackgroundImageFix" result="effect1_dropShadow_1581_167"></feBlend>
<feBlend mode="normal" in="SourceGraphic" in2="effect1_dropShadow_1581_167" result="shape"></feBlend>
</filter>
</defs>
</svg>