<svg width="18" height="18" viewBox="0 0 18 18" fill="none" xmlns="http://www.w3.org/2000/svg">
<circle cx="7.60069" cy="4.6774" r="2.94214" stroke="white" stroke-width="0.529481"></circle>
<path d="M9.61623 14.6349H2C2 13.2293 2.53067 9.50537 7.30673 9.50537C8.14687 9.50537 8.86889 9.56936 9.48938 9.68342" stroke="white" stroke-width="0.529481" stroke-linecap="round"></path>
<circle cx="13.0292" cy="12.1926" r="4.10348" stroke="white" stroke-width="0.529481"></circle>
<path d="M14.3183 10.468L13.1938 11.613" stroke="white" stroke-width="0.424675" stroke-linecap="round"></path>
<path d="M12.5395 12.2572L12.192 12.6048" stroke="white" stroke-width="0.424675" stroke-linecap="round"></path>
<path d="M11.0368 13.1669L11.6041 12.5996C11.7658 12.4379 12.0273 12.4356 12.1918 12.5946C12.3604 12.7574 12.3627 13.0268 12.197 13.1925L11.6297 13.7598C11.466 13.9236 11.2005 13.9236 11.0368 13.7598C10.873 13.5961 10.873 13.3307 11.0368 13.1669Z" stroke="white" stroke-width="0.424675" stroke-linecap="round"></path>
<path d="M14.9277 10.1951L14.6863 10.5193H14.3796L14.2672 10.4068L14.3183 10.1002L14.6117 9.88012C14.7014 9.81281 14.827 9.82174 14.9063 9.90106C14.9854 9.98018 14.9945 10.1054 14.9277 10.1951Z" stroke="white" stroke-width="0.424675" stroke-linecap="round"></path>
<path d="M11.0471 13.1464L11.6502 13.7495" stroke="white" stroke-width="0.424675" stroke-linecap="round"></path>
<path d="M11.2208 9.85464L11.7421 10.3556L11.3434 10.7542L10.8119 10.2431C10.7403 10.3964 10.5612 10.7031 10.8834 11.112C11.2056 11.5209 11.5377 11.4494 11.7932 11.4596L13.4391 13.0748C13.3 13.4101 13.4391 13.7523 13.7049 13.9539C13.9707 14.1556 14.4273 14.1073 14.6658 14.0153L14.1444 13.4939L14.5125 13.1259L14.9929 13.6064C15.0679 13.3951 15.1401 12.9092 14.8294 12.6556C14.5186 12.4021 14.1478 12.4069 14.0013 12.441L12.335 10.7542C12.3841 10.378 12.2396 10.1 12.1612 10.008C11.785 9.62361 11.3775 9.7456 11.2208 9.85464Z" stroke="white" stroke-width="0.424675" stroke-linecap="round"></path>
</svg>