<svg width="18" height="18" viewBox="0 0 18 18" fill="none" xmlns="http://www.w3.org/2000/svg">
<path d="M12.1856 2.56445H3.3145V13.9355H9.00005V14.5645H3.3145C2.96711 14.5644 2.68569 14.2829 2.68559 13.9355V2.56445C2.68569 2.21706 2.96711 1.93565 3.3145 1.93555H12.1856C12.533 1.93565 12.8144 2.21706 12.8145 2.56445V10.0371H12.1856V2.56445Z" fill="white"></path>
<path d="M14.75 13.375C14.75 12.0633 13.6867 11 12.375 11C11.0634 11 10 12.0633 10 13.375C10 14.6867 11.0634 15.75 12.375 15.75C13.6867 15.75 14.75 14.6867 14.75 13.375ZM15.3789 13.375C15.3789 15.0342 14.0342 16.3789 12.375 16.3789C10.7158 16.3789 9.37112 15.0342 9.37112 13.375C9.37112 11.7158 10.7158 10.3711 12.375 10.3711C14.0342 10.3711 15.3789 11.7158 15.3789 13.375Z" fill="white"></path>
<path d="M12.9532 12.6123C13.0292 12.5174 13.1679 12.5021 13.2628 12.5781C13.3577 12.6541 13.3729 12.7927 13.297 12.8877L12.297 14.1377L12.1437 14.33L11.9698 14.1552L11.5948 13.7802C11.5088 13.6942 11.5088 13.5557 11.5948 13.4697C11.6808 13.3837 11.8194 13.3837 11.9054 13.4697L12.1056 13.6699L12.9532 12.6123Z" fill="white"></path>
<path d="M6.49995 5.12891L6.49995 4.5L11.25 4.5L11.25 5.12891L6.49995 5.12891Z" fill="white"></path>
<path d="M5.49994 4.25H4.49994V5.25H5.49994V4.25ZM5.94037 5.69043H4.05951V3.80957H5.94037V5.69043Z" fill="white"></path>
<path d="M6.49995 5.12891L6.49995 4.5L11.25 4.5L11.25 5.12891L6.49995 5.12891Z" fill="white"></path>
<path d="M5.49994 4.25H4.49994V5.25H5.49994V4.25ZM5.94037 5.69043H4.05951V3.80957H5.94037V5.69043Z" fill="white"></path>
<path d="M6.49997 11.0645L6.49997 10.4355L10.25 10.4355L10.25 11.0645L6.49997 11.0645Z" fill="white"></path>
<path d="M5.49994 10.25H4.49994V11.25H5.49994V10.25ZM5.94037 11.6904H4.05951V9.80957H5.94037V11.6904Z" fill="white"></path>
<path d="M6.49995 8.12891L6.49995 7.5L11.25 7.5L11.25 8.12891L6.49995 8.12891Z" fill="white"></path>
<path d="M5.49994 7.25012H4.49994V8.25012H5.49994V7.25012ZM5.94037 8.69055H4.05951V6.80969H5.94037V8.69055Z" fill="white"></path>
<path d="M4.75 4.5H5.25V5H4.75V4.5Z" fill="white"></path>
<path d="M4.75 7.49988H5.25V7.99988H4.75V7.49988Z" fill="white"></path>
<path d="M4.75 10.5H5.25V11H4.75V10.5Z" fill="white"></path>
</svg>