<svg width="682" height="62" viewBox="0 0 682 62" fill="none" xmlns="http://www.w3.org/2000/svg">
<g filter="url(#filter0_d_4783_5702)">
<rect x="7" y="7" width="668" height="48" rx="5" fill="white" shape-rendering="crispEdges"></rect>
<path d="M21.352 36.692C20.616 36.692 19.9333 36.5533 19.304 36.276C18.6747 35.9987 18.1307 35.62 17.672 35.14L18.472 34.212C18.8453 34.6067 19.2827 34.9267 19.784 35.172C20.296 35.4067 20.824 35.524 21.368 35.524C22.0613 35.524 22.6 35.3693 22.984 35.06C23.368 34.74 23.56 34.324 23.56 33.812C23.56 33.5453 23.512 33.3213 23.416 33.14C23.3307 32.948 23.208 32.788 23.048 32.66C22.8987 32.5213 22.7173 32.3987 22.504 32.292C22.2907 32.1853 22.0613 32.0733 21.816 31.956L20.312 31.3C20.0667 31.1933 19.816 31.0653 19.56 30.916C19.304 30.7667 19.0747 30.5853 18.872 30.372C18.6693 30.1587 18.504 29.908 18.376 29.62C18.248 29.3213 18.184 28.98 18.184 28.596C18.184 28.2013 18.264 27.8333 18.424 27.492C18.5947 27.1507 18.824 26.8573 19.112 26.612C19.4107 26.356 19.7573 26.1587 20.152 26.02C20.5573 25.8813 21 25.812 21.48 25.812C22.1093 25.812 22.6907 25.9347 23.224 26.18C23.7573 26.4147 24.2107 26.724 24.584 27.108L23.864 27.972C23.544 27.6627 23.1867 27.4227 22.792 27.252C22.408 27.0707 21.9707 26.98 21.48 26.98C20.8933 26.98 20.4187 27.1187 20.056 27.396C19.704 27.6627 19.528 28.036 19.528 28.516C19.528 28.772 19.576 28.9907 19.672 29.172C19.7787 29.3427 19.9173 29.4973 20.088 29.636C20.2587 29.764 20.4453 29.8813 20.648 29.988C20.8507 30.084 21.0587 30.1747 21.272 30.26L22.76 30.9C23.0587 31.028 23.3413 31.1773 23.608 31.348C23.8747 31.508 24.104 31.7 24.296 31.924C24.488 32.1373 24.6373 32.3933 24.744 32.692C24.8613 32.98 24.92 33.316 24.92 33.7C24.92 34.116 24.8347 34.5053 24.664 34.868C24.504 35.2307 24.2693 35.5507 23.96 35.828C23.6507 36.0947 23.2773 36.308 22.84 36.468C22.4027 36.6173 21.9067 36.692 21.352 36.692ZM30.0109 36.692C29.4882 36.692 28.9975 36.6013 28.5389 36.42C28.0909 36.228 27.6962 35.9613 27.3549 35.62C27.0242 35.268 26.7629 34.8413 26.5709 34.34C26.3789 33.8387 26.2829 33.268 26.2829 32.628C26.2829 31.988 26.3789 31.4173 26.5709 30.916C26.7735 30.404 27.0349 29.972 27.3549 29.62C27.6855 29.268 28.0589 29.0013 28.4749 28.82C28.8909 28.628 29.3229 28.532 29.7709 28.532C30.2615 28.532 30.6989 28.6173 31.0829 28.788C31.4775 28.9587 31.8029 29.204 32.0589 29.524C32.3255 29.844 32.5282 30.228 32.6669 30.676C32.8055 31.124 32.8749 31.6253 32.8749 32.18C32.8749 32.3187 32.8695 32.4573 32.8589 32.596C32.8589 32.724 32.8482 32.836 32.8269 32.932H27.5789C27.6322 33.764 27.8882 34.4253 28.3469 34.916C28.8162 35.396 29.4242 35.636 30.1709 35.636C30.5442 35.636 30.8855 35.5827 31.1949 35.476C31.5149 35.3587 31.8189 35.2093 32.1069 35.028L32.5709 35.892C32.2295 36.1053 31.8509 36.292 31.4349 36.452C31.0189 36.612 30.5442 36.692 30.0109 36.692ZM27.5629 31.988H31.7229C31.7229 31.1987 31.5522 30.6013 31.2109 30.196C30.8802 29.78 30.4109 29.572 29.8029 29.572C29.5255 29.572 29.2589 29.6253 29.0029 29.732C28.7575 29.8387 28.5335 29.9987 28.3309 30.212C28.1282 30.4147 27.9575 30.6653 27.8189 30.964C27.6909 31.2627 27.6055 31.604 27.5629 31.988ZM36.3696 36.692C35.719 36.692 35.175 36.5 34.7376 36.116C34.311 35.732 34.0976 35.188 34.0976 34.484C34.0976 33.6307 34.4763 32.98 35.2336 32.532C35.991 32.0733 37.2016 31.7533 38.8656 31.572C38.8656 31.3267 38.839 31.0867 38.7856 30.852C38.743 30.6173 38.663 30.4093 38.5456 30.228C38.4283 30.0467 38.263 29.9027 38.0496 29.796C37.847 29.6787 37.5856 29.62 37.2656 29.62C36.8176 29.62 36.3963 29.7053 36.0016 29.876C35.607 30.0467 35.255 30.2387 34.9456 30.452L34.4336 29.54C34.7963 29.3053 35.239 29.0813 35.7616 28.868C36.2843 28.644 36.8603 28.532 37.4896 28.532C38.439 28.532 39.127 28.8253 39.5536 29.412C39.9803 29.988 40.1936 30.7613 40.1936 31.732V36.5H39.1056L38.9936 35.572H38.9456C38.5723 35.8813 38.1723 36.148 37.7456 36.372C37.319 36.5853 36.8603 36.692 36.3696 36.692ZM36.7536 35.636C37.127 35.636 37.479 35.5507 37.8096 35.38C38.1403 35.1987 38.4923 34.9373 38.8656 34.596V32.436C38.215 32.5213 37.6656 32.6227 37.2176 32.74C36.7803 32.8573 36.423 32.996 36.1456 33.156C35.879 33.316 35.6816 33.5027 35.5536 33.716C35.4363 33.9187 35.3776 34.1427 35.3776 34.388C35.3776 34.836 35.511 35.156 35.7776 35.348C36.0443 35.54 36.3696 35.636 36.7536 35.636ZM42.6401 36.5V28.724H43.7281L43.8401 30.132H43.8881C44.1548 29.6413 44.4748 29.252 44.8481 28.964C45.2321 28.676 45.6481 28.532 46.0961 28.532C46.4055 28.532 46.6828 28.5853 46.9281 28.692L46.6721 29.844C46.5441 29.8013 46.4268 29.7693 46.3201 29.748C46.2135 29.7267 46.0801 29.716 45.9201 29.716C45.5895 29.716 45.2428 29.8493 44.8801 30.116C44.5281 30.3827 44.2188 30.8467 43.9521 31.508V36.5H42.6401ZM51.1028 36.692C50.5908 36.692 50.1108 36.6013 49.6628 36.42C49.2148 36.2387 48.8254 35.9773 48.4948 35.636C48.1748 35.284 47.9188 34.8573 47.7268 34.356C47.5454 33.844 47.4548 33.268 47.4548 32.628C47.4548 31.9773 47.5561 31.4013 47.7588 30.9C47.9614 30.388 48.2334 29.956 48.5748 29.604C48.9161 29.252 49.3108 28.9853 49.7588 28.804C50.2174 28.6227 50.6974 28.532 51.1988 28.532C51.7108 28.532 52.1481 28.6227 52.5108 28.804C52.8734 28.9853 53.1934 29.1987 53.4708 29.444L52.7988 30.308C52.5748 30.1053 52.3348 29.94 52.0788 29.812C51.8334 29.684 51.5561 29.62 51.2468 29.62C50.8948 29.62 50.5694 29.6947 50.2708 29.844C49.9721 29.9827 49.7161 30.1853 49.5028 30.452C49.2894 30.7187 49.1188 31.0387 48.9908 31.412C48.8734 31.7747 48.8148 32.18 48.8148 32.628C48.8148 33.076 48.8734 33.4813 48.9908 33.844C49.1081 34.2067 49.2681 34.5213 49.4708 34.788C49.6841 35.044 49.9401 35.2467 50.2388 35.396C50.5374 35.5347 50.8628 35.604 51.2148 35.604C51.5774 35.604 51.9081 35.5293 52.2068 35.38C52.5161 35.22 52.7934 35.0333 53.0388 34.82L53.6148 35.7C53.2628 36.0093 52.8734 36.2547 52.4468 36.436C52.0201 36.6067 51.5721 36.692 51.1028 36.692ZM55.3276 36.5V25.108H56.6396V28.212L56.5916 29.812C56.965 29.46 57.3543 29.1613 57.7596 28.916C58.165 28.66 58.6396 28.532 59.1836 28.532C60.005 28.532 60.6023 28.788 60.9756 29.3C61.3596 29.812 61.5516 30.5693 61.5516 31.572V36.5H60.2396V31.748C60.2396 31.012 60.1223 30.484 59.8876 30.164C59.653 29.8333 59.2796 29.668 58.7676 29.668C58.3623 29.668 58.005 29.7693 57.6956 29.972C57.3863 30.1747 57.0343 30.4733 56.6396 30.868V36.5H55.3276ZM67.3619 36.5V26.004H68.6899V31.268H68.7379L73.1059 26.004H74.6099L71.3299 30.004L75.1219 36.5H73.6339L70.4979 31.044L68.6899 33.172V36.5H67.3619ZM79.5421 36.692C79.0195 36.692 78.5288 36.6013 78.0701 36.42C77.6221 36.228 77.2275 35.9613 76.8861 35.62C76.5555 35.268 76.2941 34.8413 76.1021 34.34C75.9101 33.8387 75.8141 33.268 75.8141 32.628C75.8141 31.988 75.9101 31.4173 76.1021 30.916C76.3048 30.404 76.5661 29.972 76.8861 29.62C77.2168 29.268 77.5901 29.0013 78.0061 28.82C78.4221 28.628 78.8541 28.532 79.3021 28.532C79.7928 28.532 80.2301 28.6173 80.6141 28.788C81.0088 28.9587 81.3341 29.204 81.5901 29.524C81.8568 29.844 82.0595 30.228 82.1981 30.676C82.3368 31.124 82.4061 31.6253 82.4061 32.18C82.4061 32.3187 82.4008 32.4573 82.3901 32.596C82.3901 32.724 82.3795 32.836 82.3581 32.932H77.1101C77.1635 33.764 77.4195 34.4253 77.8781 34.916C78.3475 35.396 78.9555 35.636 79.7021 35.636C80.0755 35.636 80.4168 35.5827 80.7261 35.476C81.0461 35.3587 81.3501 35.2093 81.6381 35.028L82.1021 35.892C81.7608 36.1053 81.3821 36.292 80.9661 36.452C80.5501 36.612 80.0755 36.692 79.5421 36.692ZM77.0941 31.988H81.2541C81.2541 31.1987 81.0835 30.6013 80.7421 30.196C80.4115 29.78 79.9421 29.572 79.3341 29.572C79.0568 29.572 78.7901 29.6253 78.5341 29.732C78.2888 29.8387 78.0648 29.9987 77.8621 30.212C77.6595 30.4147 77.4888 30.6653 77.3501 30.964C77.2221 31.2627 77.1368 31.604 77.0941 31.988ZM84.5338 39.844C84.3524 39.844 84.1871 39.828 84.0378 39.796C83.8884 39.7747 83.7498 39.7373 83.6217 39.684L83.8778 38.644C83.9631 38.6653 84.0591 38.6867 84.1658 38.708C84.2724 38.74 84.3738 38.756 84.4698 38.756C84.9178 38.756 85.2804 38.596 85.5578 38.276C85.8458 37.9667 86.0698 37.572 86.2298 37.092L86.4058 36.516L83.2858 28.724H84.6458L86.2298 33.028C86.3471 33.3693 86.4698 33.732 86.5978 34.116C86.7364 34.4893 86.8644 34.8573 86.9818 35.22H87.0458C87.1631 34.868 87.2751 34.5 87.3818 34.116C87.4884 33.732 87.5951 33.3693 87.7018 33.028L89.0938 28.724H90.3738L87.4458 37.14C87.3071 37.524 87.1524 37.8813 86.9818 38.212C86.8111 38.5427 86.6084 38.8253 86.3738 39.06C86.1391 39.3053 85.8724 39.4973 85.5738 39.636C85.2751 39.7747 84.9284 39.844 84.5338 39.844ZM93.1065 36.5L90.9465 28.724H92.2905L93.4425 33.22C93.5278 33.5933 93.6078 33.956 93.6825 34.308C93.7572 34.66 93.8318 35.0173 93.9065 35.38H93.9705C94.0558 35.0173 94.1412 34.66 94.2265 34.308C94.3118 33.9453 94.4025 33.5827 94.4985 33.22L95.6985 28.724H96.9785L98.1945 33.22C98.2905 33.5933 98.3812 33.956 98.4665 34.308C98.5625 34.66 98.6532 35.0173 98.7385 35.38H98.8025C98.8878 35.0173 98.9678 34.66 99.0425 34.308C99.1172 33.956 99.1972 33.5933 99.2825 33.22L100.419 28.724H101.667L99.5865 36.5H97.9865L96.8665 32.324C96.7705 31.9507 96.6798 31.5827 96.5945 31.22C96.5198 30.8573 96.4345 30.4787 96.3385 30.084H96.2745C96.1892 30.4787 96.1038 30.8627 96.0185 31.236C95.9332 31.5987 95.8372 31.9667 95.7305 32.34L94.6425 36.5H93.1065ZM106.32 36.692C105.84 36.692 105.382 36.6013 104.944 36.42C104.518 36.2387 104.139 35.9773 103.808 35.636C103.478 35.284 103.211 34.8573 103.008 34.356C102.816 33.844 102.72 33.268 102.72 32.628C102.72 31.9773 102.816 31.4013 103.008 30.9C103.211 30.388 103.478 29.956 103.808 29.604C104.139 29.252 104.518 28.9853 104.944 28.804C105.382 28.6227 105.84 28.532 106.32 28.532C106.8 28.532 107.254 28.6227 107.68 28.804C108.118 28.9853 108.502 29.252 108.832 29.604C109.163 29.956 109.424 30.388 109.616 30.9C109.819 31.4013 109.92 31.9773 109.92 32.628C109.92 33.268 109.819 33.844 109.616 34.356C109.424 34.8573 109.163 35.284 108.832 35.636C108.502 35.9773 108.118 36.2387 107.68 36.42C107.254 36.6013 106.8 36.692 106.32 36.692ZM106.32 35.604C106.651 35.604 106.955 35.5347 107.232 35.396C107.51 35.2467 107.744 35.044 107.936 34.788C108.139 34.5213 108.294 34.2067 108.4 33.844C108.507 33.4813 108.56 33.076 108.56 32.628C108.56 32.18 108.507 31.7747 108.4 31.412C108.294 31.0387 108.139 30.7187 107.936 30.452C107.744 30.1853 107.51 29.9827 107.232 29.844C106.955 29.6947 106.651 29.62 106.32 29.62C105.99 29.62 105.686 29.6947 105.408 29.844C105.131 29.9827 104.891 30.1853 104.688 30.452C104.496 30.7187 104.347 31.0387 104.24 31.412C104.134 31.7747 104.08 32.18 104.08 32.628C104.08 33.076 104.134 33.4813 104.24 33.844C104.347 34.2067 104.496 34.5213 104.688 34.788C104.891 35.044 105.131 35.2467 105.408 35.396C105.686 35.5347 105.99 35.604 106.32 35.604ZM111.968 36.5V28.724H113.056L113.168 30.132H113.216C113.483 29.6413 113.803 29.252 114.176 28.964C114.56 28.676 114.976 28.532 115.424 28.532C115.734 28.532 116.011 28.5853 116.256 28.692L116 29.844C115.872 29.8013 115.755 29.7693 115.648 29.748C115.542 29.7267 115.408 29.716 115.248 29.716C114.918 29.716 114.571 29.8493 114.208 30.116C113.856 30.3827 113.547 30.8467 113.28 31.508V36.5H111.968ZM120.015 36.692C119.034 36.692 118.25 36.34 117.663 35.636C117.087 34.932 116.799 33.9293 116.799 32.628C116.799 31.9987 116.89 31.4333 117.071 30.932C117.263 30.42 117.514 29.988 117.823 29.636C118.132 29.284 118.49 29.012 118.895 28.82C119.3 28.628 119.727 28.532 120.175 28.532C120.623 28.532 121.012 28.612 121.343 28.772C121.674 28.932 122.01 29.1507 122.351 29.428L122.287 28.1V25.108H123.615V36.5H122.527L122.415 35.588H122.367C122.058 35.8867 121.7 36.148 121.295 36.372C120.9 36.5853 120.474 36.692 120.015 36.692ZM120.303 35.588C120.666 35.588 121.007 35.5027 121.327 35.332C121.647 35.1507 121.967 34.8787 122.287 34.516V30.452C121.956 30.1533 121.636 29.9453 121.327 29.828C121.028 29.7 120.719 29.636 120.399 29.636C120.09 29.636 119.796 29.7107 119.519 29.86C119.252 29.9987 119.018 30.2013 118.815 30.468C118.612 30.724 118.452 31.0333 118.335 31.396C118.218 31.7587 118.159 32.164 118.159 32.612C118.159 33.5507 118.346 34.2813 118.719 34.804C119.092 35.3267 119.62 35.588 120.303 35.588ZM132.461 36.692C131.981 36.692 131.522 36.6013 131.085 36.42C130.658 36.2387 130.28 35.9773 129.949 35.636C129.618 35.284 129.352 34.8573 129.149 34.356C128.957 33.844 128.861 33.268 128.861 32.628C128.861 31.9773 128.957 31.4013 129.149 30.9C129.352 30.388 129.618 29.956 129.949 29.604C130.28 29.252 130.658 28.9853 131.085 28.804C131.522 28.6227 131.981 28.532 132.461 28.532C132.941 28.532 133.394 28.6227 133.821 28.804C134.258 28.9853 134.642 29.252 134.973 29.604C135.304 29.956 135.565 30.388 135.757 30.9C135.96 31.4013 136.061 31.9773 136.061 32.628C136.061 33.268 135.96 33.844 135.757 34.356C135.565 34.8573 135.304 35.284 134.973 35.636C134.642 35.9773 134.258 36.2387 133.821 36.42C133.394 36.6013 132.941 36.692 132.461 36.692ZM132.461 35.604C132.792 35.604 133.096 35.5347 133.373 35.396C133.65 35.2467 133.885 35.044 134.077 34.788C134.28 34.5213 134.434 34.2067 134.541 33.844C134.648 33.4813 134.701 33.076 134.701 32.628C134.701 32.18 134.648 31.7747 134.541 31.412C134.434 31.0387 134.28 30.7187 134.077 30.452C133.885 30.1853 133.65 29.9827 133.373 29.844C133.096 29.6947 132.792 29.62 132.461 29.62C132.13 29.62 131.826 29.6947 131.549 29.844C131.272 29.9827 131.032 30.1853 130.829 30.452C130.637 30.7187 130.488 31.0387 130.381 31.412C130.274 31.7747 130.221 32.18 130.221 32.628C130.221 33.076 130.274 33.4813 130.381 33.844C130.488 34.2067 130.637 34.5213 130.829 34.788C131.032 35.044 131.272 35.2467 131.549 35.396C131.826 35.5347 132.13 35.604 132.461 35.604ZM138.109 36.5V28.724H139.197L139.309 30.132H139.357C139.624 29.6413 139.944 29.252 140.317 28.964C140.701 28.676 141.117 28.532 141.565 28.532C141.874 28.532 142.152 28.5853 142.397 28.692L142.141 29.844C142.013 29.8013 141.896 29.7693 141.789 29.748C141.682 29.7267 141.549 29.716 141.389 29.716C141.058 29.716 140.712 29.8493 140.349 30.116C139.997 30.3827 139.688 30.8467 139.421 31.508V36.5H138.109ZM146.987 36.5V26.004H148.315V36.5H146.987ZM153.51 36.692C153.094 36.692 152.742 36.628 152.454 36.5C152.177 36.372 151.947 36.196 151.766 35.972C151.595 35.748 151.473 35.476 151.398 35.156C151.323 34.836 151.286 34.484 151.286 34.1V29.796H150.134V28.804L151.35 28.724L151.51 26.548H152.614V28.724H154.71V29.796H152.614V34.116C152.614 34.596 152.699 34.9693 152.87 35.236C153.051 35.492 153.366 35.62 153.814 35.62C153.953 35.62 154.102 35.5987 154.262 35.556C154.422 35.5133 154.566 35.4653 154.694 35.412L154.95 36.404C154.737 36.4787 154.502 36.5427 154.246 36.596C154.001 36.66 153.755 36.692 153.51 36.692ZM159.402 36.692C158.879 36.692 158.388 36.6013 157.93 36.42C157.482 36.228 157.087 35.9613 156.746 35.62C156.415 35.268 156.154 34.8413 155.962 34.34C155.77 33.8387 155.674 33.268 155.674 32.628C155.674 31.988 155.77 31.4173 155.962 30.916C156.164 30.404 156.426 29.972 156.746 29.62C157.076 29.268 157.45 29.0013 157.866 28.82C158.282 28.628 158.714 28.532 159.161 28.532C159.652 28.532 160.09 28.6173 160.474 28.788C160.868 28.9587 161.194 29.204 161.45 29.524C161.716 29.844 161.919 30.228 162.058 30.676C162.196 31.124 162.266 31.6253 162.266 32.18C162.266 32.3187 162.26 32.4573 162.25 32.596C162.25 32.724 162.239 32.836 162.218 32.932H156.97C157.023 33.764 157.279 34.4253 157.738 34.916C158.207 35.396 158.815 35.636 159.562 35.636C159.935 35.636 160.276 35.5827 160.586 35.476C160.906 35.3587 161.21 35.2093 161.498 35.028L161.962 35.892C161.62 36.1053 161.242 36.292 160.826 36.452C160.41 36.612 159.935 36.692 159.402 36.692ZM156.954 31.988H161.114C161.114 31.1987 160.943 30.6013 160.602 30.196C160.271 29.78 159.802 29.572 159.194 29.572C158.916 29.572 158.65 29.6253 158.394 29.732C158.148 29.8387 157.924 29.9987 157.722 30.212C157.519 30.4147 157.348 30.6653 157.21 30.964C157.082 31.2627 156.996 31.604 156.954 31.988ZM164.187 36.5V28.724H165.275L165.387 29.844H165.435C165.776 29.4707 166.144 29.1613 166.539 28.916C166.944 28.66 167.382 28.532 167.851 28.532C168.448 28.532 168.912 28.6653 169.243 28.932C169.584 29.188 169.835 29.5507 169.995 30.02C170.4 29.572 170.806 29.2147 171.211 28.948C171.627 28.6707 172.075 28.532 172.555 28.532C173.355 28.532 173.947 28.788 174.331 29.3C174.726 29.812 174.923 30.5693 174.923 31.572V36.5H173.611V31.748C173.611 31.012 173.494 30.484 173.259 30.164C173.024 29.8333 172.662 29.668 172.171 29.668C171.584 29.668 170.934 30.068 170.219 30.868V36.5H168.907V31.748C168.907 31.012 168.79 30.484 168.555 30.164C168.32 29.8333 167.952 29.668 167.451 29.668C166.864 29.668 166.214 30.068 165.499 30.868V36.5H164.187ZM180.784 36.5V26.004H182.16L185.952 32.596L187.088 34.772H187.152C187.12 34.2387 187.082 33.6893 187.04 33.124C187.008 32.548 186.992 31.9827 186.992 31.428V26.004H188.256V36.5H186.88L183.072 29.892L181.936 27.732H181.872C181.914 28.2653 181.952 28.8093 181.984 29.364C182.026 29.908 182.048 30.4573 182.048 31.012V36.5H180.784ZM193.287 36.692C192.455 36.692 191.847 36.436 191.463 35.924C191.09 35.412 190.903 34.6547 190.903 33.652V28.724H192.231V33.476C192.231 34.212 192.343 34.7453 192.567 35.076C192.802 35.396 193.175 35.556 193.687 35.556C194.092 35.556 194.45 35.4547 194.759 35.252C195.068 35.0387 195.41 34.7027 195.783 34.244V28.724H197.095V36.5H196.007L195.895 35.284H195.847C195.484 35.7107 195.1 36.052 194.695 36.308C194.3 36.564 193.831 36.692 193.287 36.692ZM199.718 36.5V28.724H200.806L200.918 29.844H200.966C201.308 29.4707 201.676 29.1613 202.07 28.916C202.476 28.66 202.913 28.532 203.382 28.532C203.98 28.532 204.444 28.6653 204.774 28.932C205.116 29.188 205.366 29.5507 205.526 30.02C205.932 29.572 206.337 29.2147 206.742 28.948C207.158 28.6707 207.606 28.532 208.086 28.532C208.886 28.532 209.478 28.788 209.862 29.3C210.257 29.812 210.454 30.5693 210.454 31.572V36.5H209.142V31.748C209.142 31.012 209.025 30.484 208.79 30.164C208.556 29.8333 208.193 29.668 207.702 29.668C207.116 29.668 206.465 30.068 205.75 30.868V36.5H204.438V31.748C204.438 31.012 204.321 30.484 204.086 30.164C203.852 29.8333 203.484 29.668 202.982 29.668C202.396 29.668 201.745 30.068 201.03 30.868V36.5H199.718ZM216.424 36.692C216.061 36.692 215.683 36.6067 215.288 36.436C214.904 36.2547 214.541 36.0093 214.2 35.7H214.152L214.04 36.5H212.984V25.108H214.296V28.212L214.264 29.62C214.616 29.3107 215 29.0547 215.416 28.852C215.832 28.6387 216.259 28.532 216.696 28.532C217.197 28.532 217.64 28.628 218.024 28.82C218.408 29.0013 218.728 29.268 218.984 29.62C219.251 29.9613 219.448 30.3773 219.576 30.868C219.715 31.348 219.784 31.8867 219.784 32.484C219.784 33.1453 219.693 33.7373 219.512 34.26C219.331 34.7827 219.085 35.2253 218.776 35.588C218.467 35.9507 218.109 36.228 217.704 36.42C217.299 36.6013 216.872 36.692 216.424 36.692ZM216.2 35.588C216.52 35.588 216.813 35.5187 217.08 35.38C217.357 35.2307 217.592 35.028 217.784 34.772C217.987 34.5053 218.141 34.18 218.248 33.796C218.365 33.412 218.424 32.98 218.424 32.5C218.424 32.0733 218.387 31.684 218.312 31.332C218.237 30.98 218.115 30.6813 217.944 30.436C217.784 30.18 217.571 29.9827 217.304 29.844C217.048 29.7053 216.739 29.636 216.376 29.636C215.747 29.636 215.053 29.988 214.296 30.692V34.772C214.637 35.0707 214.973 35.284 215.304 35.412C215.645 35.5293 215.944 35.588 216.2 35.588ZM224.98 36.692C224.457 36.692 223.966 36.6013 223.508 36.42C223.06 36.228 222.665 35.9613 222.324 35.62C221.993 35.268 221.732 34.8413 221.54 34.34C221.348 33.8387 221.252 33.268 221.252 32.628C221.252 31.988 221.348 31.4173 221.54 30.916C221.742 30.404 222.004 29.972 222.324 29.62C222.654 29.268 223.028 29.0013 223.444 28.82C223.86 28.628 224.292 28.532 224.74 28.532C225.23 28.532 225.668 28.6173 226.052 28.788C226.446 28.9587 226.772 29.204 227.028 29.524C227.294 29.844 227.497 30.228 227.636 30.676C227.774 31.124 227.844 31.6253 227.844 32.18C227.844 32.3187 227.838 32.4573 227.828 32.596C227.828 32.724 227.817 32.836 227.796 32.932H222.548C222.601 33.764 222.857 34.4253 223.316 34.916C223.785 35.396 224.393 35.636 225.14 35.636C225.513 35.636 225.854 35.5827 226.164 35.476C226.484 35.3587 226.788 35.2093 227.076 35.028L227.54 35.892C227.198 36.1053 226.82 36.292 226.404 36.452C225.988 36.612 225.513 36.692 224.98 36.692ZM222.532 31.988H226.692C226.692 31.1987 226.521 30.6013 226.18 30.196C225.849 29.78 225.38 29.572 224.772 29.572C224.494 29.572 224.228 29.6253 223.972 29.732C223.726 29.8387 223.502 29.9987 223.3 30.212C223.097 30.4147 222.926 30.6653 222.788 30.964C222.66 31.2627 222.574 31.604 222.532 31.988ZM229.765 36.5V28.724H230.853L230.965 30.132H231.013C231.28 29.6413 231.6 29.252 231.973 28.964C232.357 28.676 232.773 28.532 233.221 28.532C233.53 28.532 233.808 28.5853 234.053 28.692L233.797 29.844C233.669 29.8013 233.552 29.7693 233.445 29.748C233.338 29.7267 233.205 29.716 233.045 29.716C232.714 29.716 232.368 29.8493 232.005 30.116C231.653 30.3827 231.344 30.8467 231.077 31.508V36.5H229.765Z" fill="#949494"></path>
<path d="M618 7H670C672.761 7 675 9.23858 675 12V50C675 52.7614 672.761 55 670 55H618V7Z" fill="#FF9505"></path>
<path d="M650.355 29.6463C650.355 27.3032 648.449 25.3963 646.105 25.3963C643.762 25.3963 641.855 27.3032 641.855 29.6463C641.855 31.9895 643.762 33.8963 646.105 33.8963C648.449 33.8963 650.355 31.9895 650.355 29.6463ZM655.212 37.5392C655.212 38.2033 654.662 38.7535 653.998 38.7535C653.676 38.7535 653.363 38.6207 653.144 38.393L649.89 35.1486C648.781 35.917 647.452 36.3249 646.105 36.3249C642.415 36.3249 639.427 33.3366 639.427 29.6463C639.427 25.9561 642.415 22.9678 646.105 22.9678C649.796 22.9678 652.784 25.9561 652.784 29.6463C652.784 30.9934 652.376 32.3216 651.608 33.4315L654.861 36.6854C655.08 36.9036 655.212 37.2167 655.212 37.5392Z" fill="white"></path>
</g>
<defs>
<filter id="filter0_d_4783_5702" x="0" y="0" width="682" height="62" filterUnits="userSpaceOnUse" color-interpolation-filters="sRGB">
<feFlood flood-opacity="0" result="BackgroundImageFix"></feFlood>
<feColorMatrix in="SourceAlpha" type="matrix" values="0 0 0 0 0 0 0 0 0 0 0 0 0 0 0 0 0 0 127 0" result="hardAlpha"></feColorMatrix>
<feOffset></feOffset>
<feGaussianBlur stdDeviation="3.5"></feGaussianBlur>
<feComposite in2="hardAlpha" operator="out"></feComposite>
<feColorMatrix type="matrix" values="0 0 0 0 0.627451 0 0 0 0 0.627451 0 0 0 0 0.627451 0 0 0 0.5 0"></feColorMatrix>
<feBlend mode="normal" in2="BackgroundImageFix" result="effect1_dropShadow_4783_5702"></feBlend>
<feBlend mode="normal" in="SourceGraphic" in2="effect1_dropShadow_4783_5702" result="shape"></feBlend>
</filter>
</defs>
</svg>